<svg xmlns="http://www.w3.org/2000/svg" width="31.094" height="31" viewBox="0 0 31.094 31">
  <defs>
    <style>
      .cls-1 {
        fill: #484848;
        fill-rule: evenodd;
      }
    </style>
  </defs>
  <path id="End_call_copy_2" data-name="End call copy 2" class="cls-1" d="M430.084,26.57a0.413,0.413,0,0,1,.079.007c0.545,0.792,3.472,5.223,4,6.052a1.408,1.408,0,0,1-.193.625c-0.178.337-.728,1.319-1.512,2.692l-0.61,1.069,0.707,1.008a38.914,38.914,0,0,0,4.26,4.856,38.906,38.906,0,0,0,4.857,4.264l1.008,0.707,1.068-.61c1.036-.592,2.288-1.3,2.7-1.515a1.374,1.374,0,0,1,.61-0.186,0.133,0.133,0,0,1,.025,0c0.742,0.466,5.269,3.471,6.068,4.019a0.658,0.658,0,0,1-.146.457,14.144,14.144,0,0,1-3.659,3.737c-3.636-.171-8.738-3.367-14.385-9.014s-8.842-10.746-9.01-14.369c0.245-.686,2.024-2.442,3.712-3.663a0.762,0.762,0,0,1,.423-0.136m0-1.878a2.7,2.7,0,0,0-1.53.484c-0.046.032-4.608,3.279-4.547,5.161,0.169,5.284,5.3,11.494,9.581,15.773s10.488,9.416,15.793,9.585h0.044c1.857,0,5.122-4.5,5.153-4.549a2.227,2.227,0,0,0-.235-3.118c-0.475-.334-5.667-3.785-6.3-4.175a1.873,1.873,0,0,0-.984-0.253,3.3,3.3,0,0,0-1.512.408c-0.5.263-2.014,1.125-2.754,1.547a36.7,36.7,0,0,1-4.6-4.049,36.944,36.944,0,0,1-4.045-4.6c0.422-.74,1.283-2.254,1.544-2.752a2.537,2.537,0,0,0,.149-2.51c-0.377-.6-3.816-5.75-4.171-6.24a1.921,1.921,0,0,0-1.583-.713h0Z" transform="translate(-424 -24.688)"/>
</svg>
